<svg width="326" height="91" viewBox="0 0 326 91" fill="none" xmlns="http://www.w3.org/2000/svg">
<path d="M109.168 49V23.8H114.64L127.852 41.8L126.664 41.62C126.544 40.828 126.448 40.072 126.376 39.352C126.304 38.632 126.232 37.924 126.16 37.228C126.112 36.532 126.064 35.824 126.016 35.104C125.992 34.384 125.968 33.604 125.944 32.764C125.944 31.924 125.944 31.012 125.944 30.028V23.8H131.884V49H126.34L112.552 30.424L114.388 30.676C114.508 31.828 114.604 32.812 114.676 33.628C114.772 34.42 114.844 35.128 114.892 35.752C114.964 36.376 115.012 36.94 115.036 37.444C115.06 37.948 115.072 38.452 115.072 38.956C115.096 39.436 115.108 39.976 115.108 40.576V49H109.168ZM146.955 49.36C144.963 49.36 143.187 48.928 141.627 48.064C140.091 47.2 138.867 46.024 137.955 44.536C137.067 43.048 136.623 41.344 136.623 39.424C136.623 37.504 137.067 35.8 137.955 34.312C138.867 32.824 140.091 31.648 141.627 30.784C143.187 29.92 144.963 29.488 146.955 29.488C148.947 29.488 150.711 29.92 152.247 30.784C153.807 31.648 155.031 32.824 155.919 34.312C156.807 35.8 157.251 37.504 157.251 39.424C157.251 41.344 156.807 43.048 155.919 44.536C155.031 46.024 153.807 47.2 152.247 48.064C150.711 48.928 148.947 49.36 146.955 49.36ZM146.955 44.392C147.819 44.392 148.587 44.176 149.259 43.744C149.931 43.312 150.459 42.724 150.843 41.98C151.227 41.236 151.407 40.384 151.383 39.424C151.407 38.464 151.227 37.612 150.843 36.868C150.459 36.1 149.931 35.5 149.259 35.068C148.587 34.636 147.819 34.42 146.955 34.42C146.091 34.42 145.311 34.636 144.615 35.068C143.943 35.5 143.415 36.1 143.031 36.868C142.647 37.612 142.467 38.464 142.491 39.424C142.467 40.384 142.647 41.236 143.031 41.98C143.415 42.724 143.943 43.312 144.615 43.744C145.311 44.176 146.091 44.392 146.955 44.392ZM168.614 49.396C166.958 49.396 165.482 48.976 164.186 48.136C162.914 47.272 161.906 46.096 161.162 44.608C160.418 43.096 160.046 41.38 160.046 39.46C160.046 37.54 160.418 35.836 161.162 34.348C161.906 32.836 162.926 31.648 164.222 30.784C165.518 29.92 167.006 29.488 168.686 29.488C169.55 29.488 170.378 29.62 171.17 29.884C171.962 30.148 172.682 30.508 173.33 30.964C173.978 31.42 174.506 31.948 174.914 32.548C175.322 33.124 175.562 33.724 175.634 34.348L174.266 34.672V22.36H180.062V49H174.698L174.374 44.644L175.526 44.824C175.454 45.424 175.214 46 174.806 46.552C174.422 47.104 173.918 47.596 173.294 48.028C172.67 48.436 171.95 48.76 171.134 49C170.342 49.264 169.502 49.396 168.614 49.396ZM170.09 44.608C170.978 44.608 171.746 44.392 172.394 43.96C173.042 43.528 173.534 42.928 173.87 42.16C174.23 41.392 174.41 40.492 174.41 39.46C174.41 38.404 174.23 37.492 173.87 36.724C173.534 35.956 173.042 35.356 172.394 34.924C171.746 34.492 170.978 34.276 170.09 34.276C169.202 34.276 168.434 34.492 167.786 34.924C167.162 35.356 166.67 35.956 166.31 36.724C165.95 37.492 165.77 38.404 165.77 39.46C165.77 40.492 165.95 41.392 166.31 42.16C166.67 42.928 167.162 43.528 167.786 43.96C168.434 44.392 169.202 44.608 170.09 44.608ZM194.292 49.36C192.3 49.36 190.524 48.928 188.964 48.064C187.428 47.2 186.204 46.024 185.292 44.536C184.404 43.048 183.96 41.344 183.96 39.424C183.96 37.504 184.404 35.8 185.292 34.312C186.204 32.824 187.428 31.648 188.964 30.784C190.524 29.92 192.3 29.488 194.292 29.488C196.284 29.488 198.048 29.92 199.584 30.784C201.144 31.648 202.368 32.824 203.256 34.312C204.144 35.8 204.588 37.504 204.588 39.424C204.588 41.344 204.144 43.048 203.256 44.536C202.368 46.024 201.144 47.2 199.584 48.064C198.048 48.928 196.284 49.36 194.292 49.36ZM194.292 44.392C195.156 44.392 195.924 44.176 196.596 43.744C197.268 43.312 197.796 42.724 198.18 41.98C198.564 41.236 198.744 40.384 198.72 39.424C198.744 38.464 198.564 37.612 198.18 36.868C197.796 36.1 197.268 35.5 196.596 35.068C195.924 34.636 195.156 34.42 194.292 34.42C193.428 34.42 192.648 34.636 191.952 35.068C191.28 35.5 190.752 36.1 190.368 36.868C189.984 37.612 189.804 38.464 189.828 39.424C189.804 40.384 189.984 41.236 190.368 41.98C190.752 42.724 191.28 43.312 191.952 43.744C192.648 44.176 193.428 44.392 194.292 44.392Z" fill="#FD517D"/>
<path d="M108.184 85V68.2H115.312C116.304 68.2 117.2 68.44 118 68.92C118.816 69.384 119.456 70.024 119.92 70.84C120.4 71.656 120.64 72.576 120.64 73.6C120.64 74.64 120.4 75.576 119.92 76.408C119.456 77.24 118.816 77.904 118 78.4C117.2 78.88 116.304 79.12 115.312 79.12H111.784V85H108.184ZM111.736 75.88H114.904C115.288 75.88 115.632 75.784 115.936 75.592C116.24 75.384 116.48 75.112 116.656 74.776C116.848 74.44 116.944 74.056 116.944 73.624C116.944 73.192 116.848 72.816 116.656 72.496C116.48 72.16 116.24 71.904 115.936 71.728C115.632 71.536 115.288 71.44 114.904 71.44H111.736V75.88ZM129.293 85.24C127.997 85.24 126.837 84.96 125.813 84.4C124.805 83.824 124.005 83.04 123.413 82.048C122.837 81.056 122.549 79.92 122.549 78.64C122.549 77.36 122.837 76.232 123.413 75.256C124.005 74.264 124.805 73.48 125.813 72.904C126.837 72.328 127.997 72.04 129.293 72.04C130.573 72.04 131.717 72.328 132.725 72.904C133.749 73.48 134.549 74.264 135.125 75.256C135.701 76.232 135.989 77.36 135.989 78.64C135.989 79.92 135.701 81.056 135.125 82.048C134.549 83.04 133.749 83.824 132.725 84.4C131.717 84.96 130.573 85.24 129.293 85.24ZM129.293 82.264C129.917 82.264 130.477 82.112 130.973 81.808C131.469 81.488 131.853 81.056 132.125 80.512C132.413 79.952 132.557 79.328 132.557 78.64C132.557 77.936 132.413 77.312 132.125 76.768C131.853 76.208 131.469 75.776 130.973 75.472C130.477 75.152 129.917 74.992 129.293 74.992C128.653 74.992 128.085 75.152 127.589 75.472C127.093 75.792 126.701 76.224 126.413 76.768C126.125 77.312 125.989 77.936 126.005 78.64C125.989 79.328 126.125 79.952 126.413 80.512C126.701 81.056 127.093 81.488 127.589 81.808C128.085 82.112 128.653 82.264 129.293 82.264ZM141.229 85L136.981 72.304H140.533L143.125 80.944L142.597 80.872L145.453 74.128H147.469L150.445 80.896L149.869 80.944L152.461 72.304H156.013L151.693 85H149.221L146.221 77.776L146.605 77.824L143.677 85H141.229ZM163.995 85.24C162.619 85.24 161.419 84.96 160.395 84.4C159.371 83.84 158.571 83.072 157.995 82.096C157.419 81.12 157.131 80 157.131 78.736C157.131 77.76 157.291 76.864 157.611 76.048C157.931 75.232 158.379 74.528 158.955 73.936C159.531 73.328 160.211 72.864 160.995 72.544C161.795 72.208 162.659 72.04 163.587 72.04C164.451 72.04 165.251 72.2 165.987 72.52C166.723 72.824 167.355 73.264 167.883 73.84C168.427 74.4 168.843 75.064 169.131 75.832C169.419 76.6 169.547 77.44 169.515 78.352L169.491 79.408H159.291L158.739 77.32H166.683L166.299 77.752V77.224C166.267 76.792 166.123 76.4 165.867 76.048C165.627 75.696 165.315 75.424 164.931 75.232C164.547 75.04 164.115 74.944 163.635 74.944C162.931 74.944 162.331 75.08 161.835 75.352C161.355 75.624 160.987 76.024 160.731 76.552C160.475 77.08 160.347 77.72 160.347 78.472C160.347 79.24 160.507 79.904 160.827 80.464C161.163 81.024 161.627 81.464 162.219 81.784C162.827 82.088 163.539 82.24 164.355 82.24C164.915 82.24 165.427 82.152 165.891 81.976C166.355 81.8 166.851 81.496 167.379 81.064L169.011 83.344C168.547 83.76 168.035 84.112 167.475 84.4C166.915 84.672 166.339 84.88 165.747 85.024C165.155 85.168 164.571 85.24 163.995 85.24ZM172.273 85V72.304H175.561L175.681 76.384L175.105 75.544C175.297 74.888 175.609 74.296 176.041 73.768C176.473 73.224 176.977 72.8 177.553 72.496C178.145 72.192 178.761 72.04 179.401 72.04C179.673 72.04 179.937 72.064 180.193 72.112C180.449 72.16 180.665 72.216 180.841 72.28L179.929 76.024C179.737 75.928 179.505 75.848 179.233 75.784C178.961 75.704 178.681 75.664 178.393 75.664C178.009 75.664 177.649 75.736 177.313 75.88C176.993 76.008 176.713 76.2 176.473 76.456C176.233 76.696 176.041 76.984 175.897 77.32C175.769 77.656 175.705 78.024 175.705 78.424V85H172.273ZM188.522 85.24C187.146 85.24 185.946 84.96 184.922 84.4C183.898 83.84 183.098 83.072 182.522 82.096C181.946 81.12 181.658 80 181.658 78.736C181.658 77.76 181.818 76.864 182.138 76.048C182.458 75.232 182.906 74.528 183.482 73.936C184.058 73.328 184.738 72.864 185.522 72.544C186.322 72.208 187.186 72.04 188.114 72.04C188.978 72.04 189.778 72.2 190.514 72.52C191.25 72.824 191.882 73.264 192.41 73.84C192.954 74.4 193.37 75.064 193.658 75.832C193.946 76.6 194.074 77.44 194.042 78.352L194.018 79.408H183.818L183.266 77.32H191.21L190.826 77.752V77.224C190.794 76.792 190.65 76.4 190.394 76.048C190.154 75.696 189.842 75.424 189.458 75.232C189.074 75.04 188.642 74.944 188.162 74.944C187.458 74.944 186.858 75.08 186.362 75.352C185.882 75.624 185.514 76.024 185.258 76.552C185.002 77.08 184.874 77.72 184.874 78.472C184.874 79.24 185.034 79.904 185.354 80.464C185.69 81.024 186.154 81.464 186.746 81.784C187.354 82.088 188.066 82.24 188.882 82.24C189.442 82.24 189.954 82.152 190.418 81.976C190.882 81.8 191.378 81.496 191.906 81.064L193.538 83.344C193.074 83.76 192.562 84.112 192.002 84.4C191.442 84.672 190.866 84.88 190.274 85.024C189.682 85.168 189.098 85.24 188.522 85.24ZM201.768 85.24C200.664 85.24 199.672 84.96 198.792 84.4C197.912 83.824 197.216 83.048 196.704 82.072C196.208 81.08 195.96 79.936 195.96 78.64C195.96 77.376 196.208 76.248 196.704 75.256C197.216 74.264 197.904 73.48 198.768 72.904C199.648 72.328 200.648 72.04 201.768 72.04C202.36 72.04 202.928 72.136 203.472 72.328C204.032 72.504 204.528 72.752 204.96 73.072C205.408 73.392 205.768 73.752 206.04 74.152C206.312 74.536 206.464 74.944 206.496 75.376L205.632 75.52V67.24H209.04V85H205.824L205.68 82.072L206.352 82.144C206.32 82.544 206.176 82.928 205.92 83.296C205.664 83.664 205.32 84 204.888 84.304C204.472 84.592 203.992 84.824 203.448 85C202.92 85.16 202.36 85.24 201.768 85.24ZM202.536 82.408C203.176 82.408 203.736 82.248 204.216 81.928C204.696 81.608 205.072 81.168 205.344 80.608C205.616 80.048 205.752 79.392 205.752 78.64C205.752 77.904 205.616 77.256 205.344 76.696C205.072 76.12 204.696 75.68 204.216 75.376C203.736 75.056 203.176 74.896 202.536 74.896C201.896 74.896 201.336 75.056 200.856 75.376C200.392 75.68 200.024 76.12 199.752 76.696C199.496 77.256 199.368 77.904 199.368 78.64C199.368 79.392 199.496 80.048 199.752 80.608C200.024 81.168 200.392 81.608 200.856 81.928C201.336 82.248 201.896 82.408 202.536 82.408ZM227.522 85.24C226.962 85.24 226.418 85.16 225.89 85C225.362 84.84 224.882 84.624 224.45 84.352C224.018 84.064 223.658 83.744 223.37 83.392C223.082 83.024 222.898 82.648 222.818 82.264L223.586 81.976L223.418 84.952H220.202V67.24H223.61V75.28L222.962 75.016C223.058 74.632 223.242 74.264 223.514 73.912C223.786 73.544 224.13 73.224 224.546 72.952C224.962 72.664 225.418 72.44 225.914 72.28C226.41 72.12 226.922 72.04 227.45 72.04C228.554 72.04 229.538 72.328 230.402 72.904C231.266 73.464 231.946 74.24 232.442 75.232C232.954 76.224 233.21 77.36 233.21 78.64C233.21 79.92 232.962 81.056 232.466 82.048C231.97 83.04 231.29 83.824 230.426 84.4C229.578 84.96 228.61 85.24 227.522 85.24ZM226.706 82.336C227.346 82.336 227.898 82.184 228.362 81.88C228.842 81.56 229.218 81.128 229.49 80.584C229.762 80.024 229.898 79.376 229.898 78.64C229.898 77.92 229.762 77.28 229.49 76.72C229.234 76.16 228.866 75.728 228.386 75.424C227.906 75.12 227.346 74.968 226.706 74.968C226.066 74.968 225.506 75.12 225.026 75.424C224.546 75.728 224.17 76.16 223.898 76.72C223.626 77.28 223.49 77.92 223.49 78.64C223.49 79.376 223.626 80.024 223.898 80.584C224.17 81.128 224.546 81.56 225.026 81.88C225.506 82.184 226.066 82.336 226.706 82.336ZM237.335 90.52L240.119 83.992L240.167 85.96L233.975 72.304H237.839L240.935 79.624C241.063 79.896 241.183 80.216 241.295 80.584C241.423 80.936 241.527 81.28 241.607 81.616L241.031 81.856C241.127 81.584 241.239 81.272 241.367 80.92C241.495 80.568 241.623 80.192 241.751 79.792L244.415 72.304H248.303L242.975 85L240.791 90.52H237.335ZM258.025 85V81.904H260.833V71.296H258.025V68.2H267.241V71.296H264.433V81.904H267.241V85H258.025ZM278.44 85.24C277.208 85.24 276.072 85.032 275.032 84.616C274.008 84.184 273.112 83.584 272.344 82.816C271.592 82.032 271.008 81.112 270.592 80.056C270.176 78.984 269.968 77.816 269.968 76.552C269.968 75.32 270.184 74.184 270.616 73.144C271.048 72.088 271.656 71.176 272.44 70.408C273.224 69.624 274.144 69.016 275.2 68.584C276.256 68.152 277.4 67.936 278.632 67.936C279.432 67.936 280.216 68.048 280.984 68.272C281.768 68.48 282.48 68.792 283.12 69.208C283.776 69.624 284.336 70.12 284.8 70.696L282.544 73.192C282.16 72.808 281.76 72.48 281.344 72.208C280.944 71.92 280.512 71.704 280.048 71.56C279.6 71.4 279.12 71.32 278.608 71.32C277.92 71.32 277.272 71.448 276.664 71.704C276.072 71.96 275.552 72.32 275.104 72.784C274.656 73.232 274.296 73.784 274.024 74.44C273.768 75.08 273.64 75.792 273.64 76.576C273.64 77.376 273.768 78.104 274.024 78.76C274.28 79.4 274.64 79.952 275.104 80.416C275.568 80.864 276.12 81.216 276.76 81.472C277.416 81.712 278.136 81.832 278.92 81.832C279.432 81.832 279.928 81.76 280.408 81.616C280.888 81.472 281.328 81.272 281.728 81.016C282.144 80.76 282.512 80.464 282.832 80.128L284.584 82.936C284.2 83.368 283.68 83.76 283.024 84.112C282.384 84.464 281.664 84.744 280.864 84.952C280.064 85.144 279.256 85.24 278.44 85.24ZM293.283 85.24C291.987 85.24 290.827 84.96 289.803 84.4C288.795 83.824 287.995 83.04 287.403 82.048C286.827 81.056 286.539 79.92 286.539 78.64C286.539 77.36 286.827 76.232 287.403 75.256C287.995 74.264 288.795 73.48 289.803 72.904C290.827 72.328 291.987 72.04 293.283 72.04C294.563 72.04 295.707 72.328 296.715 72.904C297.739 73.48 298.539 74.264 299.115 75.256C299.691 76.232 299.979 77.36 299.979 78.64C299.979 79.92 299.691 81.056 299.115 82.048C298.539 83.04 297.739 83.824 296.715 84.4C295.707 84.96 294.563 85.24 293.283 85.24ZM293.283 82.264C293.907 82.264 294.467 82.112 294.963 81.808C295.459 81.488 295.843 81.056 296.115 80.512C296.403 79.952 296.547 79.328 296.547 78.64C296.547 77.936 296.403 77.312 296.115 76.768C295.843 76.208 295.459 75.776 294.963 75.472C294.467 75.152 293.907 74.992 293.283 74.992C292.643 74.992 292.075 75.152 291.579 75.472C291.083 75.792 290.691 76.224 290.403 76.768C290.115 77.312 289.979 77.936 289.995 78.64C289.979 79.328 290.115 79.952 290.403 80.512C290.691 81.056 291.083 81.488 291.579 81.808C292.075 82.112 292.643 82.264 293.283 82.264ZM302.783 85V72.304H306.071L306.191 76.384L305.615 75.544C305.807 74.888 306.119 74.296 306.551 73.768C306.983 73.224 307.487 72.8 308.063 72.496C308.655 72.192 309.271 72.04 309.911 72.04C310.183 72.04 310.447 72.064 310.703 72.112C310.959 72.16 311.175 72.216 311.351 72.28L310.439 76.024C310.247 75.928 310.015 75.848 309.743 75.784C309.471 75.704 309.191 75.664 308.903 75.664C308.519 75.664 308.159 75.736 307.823 75.88C307.503 76.008 307.223 76.2 306.983 76.456C306.743 76.696 306.551 76.984 306.407 77.32C306.279 77.656 306.215 78.024 306.215 78.424V85H302.783ZM319.031 85.24C317.655 85.24 316.455 84.96 315.431 84.4C314.407 83.84 313.607 83.072 313.031 82.096C312.455 81.12 312.167 80 312.167 78.736C312.167 77.76 312.327 76.864 312.647 76.048C312.967 75.232 313.415 74.528 313.991 73.936C314.567 73.328 315.247 72.864 316.031 72.544C316.831 72.208 317.695 72.04 318.623 72.04C319.487 72.04 320.287 72.2 321.023 72.52C321.759 72.824 322.391 73.264 322.919 73.84C323.463 74.4 323.879 75.064 324.167 75.832C324.455 76.6 324.583 77.44 324.551 78.352L324.527 79.408H314.327L313.775 77.32H321.719L321.335 77.752V77.224C321.303 76.792 321.159 76.4 320.903 76.048C320.663 75.696 320.351 75.424 319.967 75.232C319.583 75.04 319.151 74.944 318.671 74.944C317.967 74.944 317.367 75.08 316.871 75.352C316.391 75.624 316.023 76.024 315.767 76.552C315.511 77.08 315.383 77.72 315.383 78.472C315.383 79.24 315.543 79.904 315.863 80.464C316.199 81.024 316.663 81.464 317.255 81.784C317.863 82.088 318.575 82.24 319.391 82.24C319.951 82.24 320.463 82.152 320.927 81.976C321.391 81.8 321.887 81.496 322.415 81.064L324.047 83.344C323.583 83.76 323.071 84.112 322.511 84.4C321.951 84.672 321.375 84.88 320.783 85.024C320.191 85.168 319.607 85.24 319.031 85.24Z" fill="#6C757D"/>
<circle cx="10.1231" cy="34.7079" r="10.1231" fill="#4C4C4C"/>
<circle cx="46.2774" cy="79.5391" r="10.1231" fill="#4C4C4C"/>
<circle cx="83.8773" cy="10.1231" r="10.1231" fill="#4C4C4C"/>
<line x1="10.9014" y1="34.0803" x2="47.0553" y2="78.9111" stroke="#4C4C4C" stroke-width="2"/>
<line x1="9.85828" y1="33.7437" x2="83.6123" y2="13.4975" stroke="#4C4C4C" stroke-width="2"/>
<line x1="84.7643" y1="10.5857" x2="50.0565" y2="77.109" stroke="#4C4C4C" stroke-width="2"/>
</svg>
