<svg width="10" height="10" viewBox="0 0 10 10" fill="none" xmlns="http://www.w3.org/2000/svg">
<path fill-rule="evenodd" clip-rule="evenodd" d="M7.90685 5.6991L5.31567 8.61047C5.23661 8.6993 5.12335 8.75012 5.00442 8.75012C4.8855 8.75012 4.77224 8.6993 4.69318 8.61047L2.1023 5.69943C0.976542 4.51721 1.02248 3.03151 1.77912 2.12845C2.15559 1.67913 2.70457 1.38389 3.33938 1.36765C3.882 1.35377 4.45274 1.544 5.00395 1.9594C5.5533 1.54408 6.12269 1.35376 6.66448 1.36765C7.29846 1.3839 7.84679 1.67937 8.22305 2.12845C8.97908 3.03078 9.02845 4.51624 7.90685 5.6991ZM6.64313 2.20071C6.26668 2.19106 5.79492 2.34406 5.28504 2.8086C5.12624 2.95328 4.88348 2.95351 4.72441 2.80915C4.21226 2.34435 3.73861 2.19105 3.36069 2.20071C2.98228 2.21039 2.65233 2.38383 2.41788 2.66364C1.95387 3.21744 1.84898 4.22863 2.70991 5.12908C2.71333 5.13267 2.71669 5.13631 2.71999 5.14001L5.00442 7.70673L7.28886 5.14001C7.29195 5.13654 7.29509 5.13312 7.2983 5.12976C8.15481 4.22989 8.04899 3.21826 7.58429 2.66364C7.34964 2.38358 7.02014 2.21037 6.64313 2.20071Z" fill="white"/>
</svg>
